<?xml version="1.0" encoding="UTF-8"?>
<!DOCTYPE svg PUBLIC "-//W3C//DTD SVG 1.1//EN" "http://www.w3.org/Graphics/SVG/1.1/DTD/svg11.dtd">
<!-- Creator: CorelDRAW X5 -->
<svg xmlns="http://www.w3.org/2000/svg" xml:space="preserve" width="40" height="40" style="shape-rendering:geometricPrecision; text-rendering:geometricPrecision; image-rendering:optimizeQuality; fill-rule:evenodd; clip-rule:evenodd"
viewBox="0 0 0.0117994 0.0117994"
 xmlns:xlink="http://www.w3.org/1999/xlink">
 <defs>
  <style type="text/css">
   <![CDATA[
    .str0 {stroke:#FF6A28;stroke-width:0.000358149}
    .fil2 {fill:none}
    .fil3 {fill:#000000}
    .fil0 {fill:#FFDFB2}
    .fil1 {fill:url(#id1)}
   ]]>
  </style>
    <clipPath id="id0">
     <path d="M0.00589971 0c0.00325846,0 0.00589971,0.00264125 0.00589971,0.00589971 0,0.00325846 -0.00264125,0.00589971 -0.00589971,0.00589971 -0.00325846,0 -0.00589971,-0.00264125 -0.00589971,-0.00589971 0,-0.00325846 0.00264125,-0.00589971 0.00589971,-0.00589971z"/>
    </clipPath>
  <linearGradient id="id1" gradientUnits="userSpaceOnUse" x1="-0.0119292" y1="0.00515661" x2="-0.0119292" y2="-0.00559882">
   <stop offset="0" style="stop-color:#FFDFB2"/>
   <stop offset="1" style="stop-color:#FEFEFE"/>
  </linearGradient>
 </defs>
 <g id="Layer_x0020_1">
  <metadata id="CorelCorpID_0Corel-Layer"/>
  <g id="_189135472">
   <path id="_189134920" class="fil0" d="M0.00589971 0c0.00325846,0 0.00589971,0.00264125 0.00589971,0.00589971 0,0.00325846 -0.00264125,0.00589971 -0.00589971,0.00589971 -0.00325846,0 -0.00589971,-0.00264125 -0.00589971,-0.00589971 0,-0.00325846 0.00264125,-0.00589971 0.00589971,-0.00589971z"/>
   <g style="clip-path:url(#id0)">
    <g>
     <circle id="_189136864" class="fil1" cx="-0.0119292" cy="-0.000221102" r="0.00537772"/>
    </g>
   </g>
   <path class="fil2" d="M0.00589971 0c0.00325846,0 0.00589971,0.00264125 0.00589971,0.00589971 0,0.00325846 -0.00264125,0.00589971 -0.00589971,0.00589971 -0.00325846,0 -0.00589971,-0.00264125 -0.00589971,-0.00589971 0,-0.00325846 0.00264125,-0.00589971 0.00589971,-0.00589971z"/>
   <g>
    <path id="_187035768" class="fil3" d="M0.00799582 0.00518138c-0.000175014,0.000138874 -0.00013461,0.000184353 -0.000440174,0.000189429l-0.00189998 5.27884e-006c-0.00257952,5.6849e-005 -0.000794668,-0.000245263 -0.00202322,-0.000413577 2.31457e-005,-0.000325461 0.000214199,-0.000438956 0.000579048,-0.000848675 0.000512047,-0.00057519 0.0013729,-0.000589403 0.00211824,-0.000588591 0.000224554,2.03032e-007 0.000450732,4.06065e-006 0.000674879,2.23335e-006 0.000844005,-7.10613e-006 0.00104034,0.000899839 0.000991204,0.0016539zm-0.00590824 0.000141107c-0.000350028,0.000214402 -0.000666352,0.000376625 -0.000866339,0.00077538 -0.00014131,0.000281606 -0.000240999,0.00126814 -0.000192475,0.00158974 3.20791e-005,0.000214199 -0.000117556,0.000684625 0.000557324,0.000386167l3.02518e-005 -0.000817408c-1.29941e-005,-0.000395507 0.00059996,-0.00101638 0.00112724,-0.00104501 0.00047002,-2.55821e-005 0.000797714,-8.73039e-006 0.00113495,0.000325664 0.000183744,0.00018212 0.000333785,0.000380685 0.000441189,0.000614782 0.000222523,0.000487277 2.78154e-005,0.000542908 0.00011451,0.0011045 0.000425759,1.98972e-005 0.00265262,9.40039e-005 0.00286113,-3.95913e-005 8.60857e-005,-8.22281e-005 4.46671e-005,-0.000520169 4.66974e-005,-0.000632649 4.87277e-006,-0.000289321 6.11127e-005,-0.000323836 0.000147198,-0.000564024 0.000243639,-0.000679346 0.00114226,-0.000872836 0.00174851,-0.00064483 0.000464132,0.000300082 0.000620467,0.00034414 0.000820453,0.000898215 0.000116541,0.000322821 3.39064e-005,0.000520981 8.8116e-005,0.000886236l0.000417434 2.03032e-006c0.000160395,-0.00039571 0.000272266,-0.000696198 0.000193287,-0.00116561 -3.1267e-005,-0.000185775 -7.83705e-005,-0.000154305 -0.000273281,-0.000197753 -0.000109231,-0.000506362 -7.18734e-005,-0.00127829 -0.000321197,-0.00186038 -0.000228005,-0.000531132 -0.000741068,-0.000859639 -0.000882784,-0.00140864 -7.18734e-005,-0.000278357 6.57825e-005,-0.000235517 -0.000799744,-0.000239781 -0.000518341,-2.43639e-006 -0.00324689,-5.78642e-005 -0.00351611,6.39552e-005 -0.000351246,0.000158771 -0.000358555,0.000121819 -0.000841569,0.000379873 -0.000363022,0.000194099 -0.00195419,0.00132377 -0.00203479,0.00158913zm0.00712684 -0.00133981c4.83217e-005,5.82703e-005 6.55794e-005,8.1619e-005 0.000116337,0.000137047 0.000186993,0.000203844 0.000304751,0.000457635 0.000436316,0.000698431 6.294e-005,0.000120195 5.6443e-005,0.000212778 4.14186e-005,0.000363225 -0.000220087,0.000111059 -0.000549405,6.86249e-005 -0.00082289,7.32946e-005 -0.000399567,6.9031e-006 -0.000496617,2.68003e-005 -0.000652343,-0.000258663 -0.000160599,-0.0002946 -0.000202626,-0.000744113 -0.000329927,-0.00106206 -0.000254602,-0.000635694 0.000563008,-0.000429007 0.000707364,-0.000365458l0.000503723 0.000414186z"/>
    <path id="_189135736" class="fil3 str0" d="M0.00290275 0.00662941c0.000523214,0 0.000947755,0.000424337 0.000947755,0.000947755 0,0.000523417 -0.00042454,0.000947755 -0.000947755,0.000947755 -0.000523417,0 -0.000947755,-0.000424337 -0.000947755,-0.000947755 0,-0.000523417 0.000424337,-0.000947755 0.000947755,-0.000947755z"/>
    <path id="_184445472" class="fil3 str0" d="M0.00868755 0.00662941c0.000523214,0 0.000947755,0.000424337 0.000947755,0.000947755 0,0.000523417 -0.00042454,0.000947755 -0.000947755,0.000947755 -0.000523417,0 -0.000947755,-0.000424337 -0.000947755,-0.000947755 0,-0.000523417 0.000424337,-0.000947755 0.000947755,-0.000947755z"/>
   </g>
  </g>
 </g>
</svg>
