<?xml version="1.0" encoding="UTF-8"?>
<!DOCTYPE svg PUBLIC "-//W3C//DTD SVG 1.1//EN" "http://www.w3.org/Graphics/SVG/1.1/DTD/svg11.dtd">
<!-- Creator: CorelDRAW X5 -->
<svg xmlns="http://www.w3.org/2000/svg" xml:space="preserve" width="40" height="40" style="shape-rendering:geometricPrecision; text-rendering:geometricPrecision; image-rendering:optimizeQuality; fill-rule:evenodd; clip-rule:evenodd"
viewBox="0 0 0.0117355 0.0117355"
 xmlns:xlink="http://www.w3.org/1999/xlink">
 <defs>
  <style type="text/css">
   <![CDATA[
    .str0 {stroke:#FF6A28;stroke-width:0.00035621}
    .fil2 {fill:none}
    .fil3 {fill:#000000}
    .fil0 {fill:#FFDFB2}
    .fil1 {fill:url(#id1)}
   ]]>
  </style>
    <clipPath id="id0">
     <path d="M0.00586777 0c0.00324082,0 0.00586777,0.00262695 0.00586777,0.00586777 0,0.00324082 -0.00262695,0.00586777 -0.00586777,0.00586777 -0.00324082,0 -0.00586777,-0.00262695 -0.00586777,-0.00586777 0,-0.00324082 0.00262695,-0.00586777 0.00586777,-0.00586777z"/>
    </clipPath>
  <linearGradient id="id1" gradientUnits="userSpaceOnUse" x1="-0.0118646" y1="0.0051287" x2="-0.0118646" y2="-0.00556851">
   <stop offset="0" style="stop-color:#FFDFB2"/>
   <stop offset="1" style="stop-color:#FEFEFE"/>
  </linearGradient>
 </defs>
 <g id="Layer_x0020_1">
  <metadata id="CorelCorpID_0Corel-Layer"/>
  <g id="_189137440">
   <path id="_188099520" class="fil0" d="M0.00586777 0c0.00324082,0 0.00586777,0.00262695 0.00586777,0.00586777 0,0.00324082 -0.00262695,0.00586777 -0.00586777,0.00586777 -0.00324082,0 -0.00586777,-0.00262695 -0.00586777,-0.00586777 0,-0.00324082 0.00262695,-0.00586777 0.00586777,-0.00586777z"/>
   <g style="clip-path:url(#id0)">
    <g>
     <circle id="_189135568" class="fil1" cx="-0.0118646" cy="-0.000219905" r="0.0053486"/>
    </g>
   </g>
   <path class="fil2" d="M0.00586777 0c0.00324082,0 0.00586777,0.00262695 0.00586777,0.00586777 0,0.00324082 -0.00262695,0.00586777 -0.00586777,0.00586777 -0.00324082,0 -0.00586777,-0.00262695 -0.00586777,-0.00586777 0,-0.00324082 0.00262695,-0.00586777 0.00586777,-0.00586777z"/>
   <path id="_188100696" class="fil3" d="M0.00925884 0.00496311c6.23973e-005,0.00011389 8.68312e-005,5.65413e-005 5.99741e-005,0.000267158l-0.000366509 -8.07732e-006c-0.000301284,-3.23093e-005 -0.000562384,2.96842e-005 -0.000841455,4.07905e-005 -0.000267561,1.07025e-005 -0.000530276,3.97808e-005 -0.000807531,2.32223e-005 -1.33276e-005,-0.000158517 6.92631e-005,-0.000811367 0.000139536,-0.00089416 0.000151652,-0.000119342 0.000932527,-9.49086e-006 0.00112335,3.3117e-005 0.000395587,8.82448e-005 0.000431329,0.000410934 0.000692631,0.00053795zm0.000978366 0.00109226c7.81481e-005,0.00018073 0.000140142,0.000171441 0.000251003,0.000453542 6.58302e-005,0.000167201 1.89817e-005,0.000467879 4.74543e-005,0.000675264 0.000377615,1.63566e-005 0.000527853,-2.14049e-005 0.00054219,-0.000398818 2.22126e-006,-6.46186e-005 -0.000323093,-0.0015567 -0.000355604,-0.00163909 -6.23973e-005,-0.000157508 -3.49344e-005,-9.3495e-005 -0.000170633,-0.000188606l-0.000879419 -0.000515737c-0.000915969,-0.000432541 -0.00221299,-0.000315016 -0.00318287,-0.000301284 -0.000544614,7.67346e-006 -0.000859427,0.000121766 -0.00139677,0.000365297l-0.000700304 0.000341469c-0.000121362,7.22921e-005 -0.000340459,0.000221117 -0.000448292,0.000263119 -0.000329151,0.000128833 -0.00186647,0.000337632 -0.00222389,0.000375999 -0.00079077,8.461e-005 -0.000702525,0.000520786 -0.000965644,0.000817425 -0.000209405,0.00023606 -4.07905e-005,0.000816214 0.000135901,0.000889515 0.000150844,6.25993e-005 0.000436176,5.00794e-005 0.000596712,4.2406e-006 8.38022e-005,-0.000238079 -4.44253e-006,-0.000483428 0.000131257,-0.000779866 0.00028937,-0.000633666 0.000946864,-0.000825301 0.00153166,-0.000419415 0.000115708,8.01674e-005 0.000128631,6.21954e-005 0.000218492,0.000175884 0.000444051,0.000561576 9.20815e-005,0.000985636 0.000280081,0.00117909 7.61288e-005,7.83501e-005 0.000956355,3.9175e-005 0.00112133,3.9175e-005 0.000889515,2.01933e-007 0.00291188,4.38195e-005 0.00356856,-1.27218e-005 9.32931e-005,-0.00017548 5.47239e-005,-0.000283312 5.31084e-005,-0.000500188 -3.83673e-006,-0.000493323 0.00021001,-0.000781077 0.000626195,-0.00101108 0.000296842,-0.000164172 0.000764115,-0.000100765 0.00104985,6.21954e-005l0.000169624 0.000124593zm-0.00498633 -0.00142908l0.000147815 -7.30998e-005c0.000449301,-0.000204356 0.00125602,-0.000366711 0.00170613,-0.000242926 8.82448e-005,0.000615694 2.62513e-006,0.00103874 -0.000617108,0.00106722 -0.000461619,2.1001e-005 -0.00100442,0.000117121 -0.00147431,5.65413e-005 -7.43114e-005,-0.000484639 -3.43286e-006,-0.000192442 -0.000412145,-0.000334401 5.33103e-005,-0.000203952 0.000457984,-0.000375394 0.000649619,-0.000473331z"/>
   <path id="_189126952" class="fil3 str0" d="M0.0025696 0.00607536c0.000426281,0 0.000772192,0.00034571 0.000772192,0.000772192 0,0.000426483 -0.000345911,0.000772192 -0.000772192,0.000772192 -0.000426483,0 -0.000772192,-0.00034571 -0.000772192,-0.000772192 0,-0.000426483 0.00034571,-0.000772192 0.000772192,-0.000772192z"/>
   <path id="_189137752" class="fil3 str0" d="M0.00949712 0.00607536c0.000426281,0 0.000772192,0.00034571 0.000772192,0.000772192 0,0.000426483 -0.000345911,0.000772192 -0.000772192,0.000772192 -0.000426483,0 -0.000772192,-0.00034571 -0.000772192,-0.000772192 0,-0.000426483 0.00034571,-0.000772192 0.000772192,-0.000772192z"/>
  </g>
 </g>
</svg>
