<?xml version="1.0" encoding="UTF-8"?>
<!DOCTYPE svg PUBLIC "-//W3C//DTD SVG 1.1//EN" "http://www.w3.org/Graphics/SVG/1.1/DTD/svg11.dtd">
<!-- Creator: CorelDRAW X5 -->
<svg xmlns="http://www.w3.org/2000/svg" xml:space="preserve" width="40" height="40" style="shape-rendering:geometricPrecision; text-rendering:geometricPrecision; image-rendering:optimizeQuality; fill-rule:evenodd; clip-rule:evenodd"
viewBox="0 0 0.0118535 0.0118535"
 xmlns:xlink="http://www.w3.org/1999/xlink">
 <defs>
  <style type="text/css">
   <![CDATA[
    .str0 {stroke:#FF6A28;stroke-width:0.000359791}
    .fil2 {fill:none}
    .fil3 {fill:#000000}
    .fil0 {fill:#FFDFB2}
    .fil1 {fill:url(#id1)}
   ]]>
  </style>
    <clipPath id="id0">
     <path d="M0.00592676 0c0.00327341,0 0.00592676,0.00265336 0.00592676,0.00592676 0,0.00327341 -0.00265336,0.00592676 -0.00592676,0.00592676 -0.00327341,0 -0.00592676,-0.00265336 -0.00592676,-0.00592676 0,-0.00327341 0.00265336,-0.00592676 0.00592676,-0.00592676z"/>
    </clipPath>
  <linearGradient id="id1" gradientUnits="userSpaceOnUse" x1="-0.0119839" y1="0.00518026" x2="-0.0119839" y2="-0.00562449">
   <stop offset="0" style="stop-color:#FFDFB2"/>
   <stop offset="1" style="stop-color:#FEFEFE"/>
  </linearGradient>
 </defs>
 <g id="Layer_x0020_1">
  <metadata id="CorelCorpID_0Corel-Layer"/>
  <g id="_189138304">
   <path id="_189137560" class="fil0" d="M0.00592676 0c0.00327341,0 0.00592676,0.00265336 0.00592676,0.00592676 0,0.00327341 -0.00265336,0.00592676 -0.00592676,0.00592676 -0.00327341,0 -0.00592676,-0.00265336 -0.00592676,-0.00592676 0,-0.00327341 0.00265336,-0.00592676 0.00592676,-0.00592676z"/>
   <g style="clip-path:url(#id0)">
    <g>
     <circle id="_189140056" class="fil1" cx="-0.0119839" cy="-0.000222116" r="0.00540238"/>
    </g>
   </g>
   <path class="fil2" d="M0.00592676 0c0.00327341,0 0.00592676,0.00265336 0.00592676,0.00592676 0,0.00327341 -0.00265336,0.00592676 -0.00592676,0.00592676 -0.00327341,0 -0.00592676,-0.00265336 -0.00592676,-0.00592676 0,-0.00327341 0.00265336,-0.00592676 0.00592676,-0.00592676z"/>
   <g>
    <path id="_187035072" class="fil3" d="M0.00709874 0.00549538c-5.87414e-005,2.52914e-005 -0.000188666,4.38521e-005 -0.000250059,5.42542e-005 -0.000152361,2.54954e-005 -0.000294523,5.48661e-005 -0.000476662,3.63055e-005 -0.000296359,-1.52972e-005 -0.000608218,6.73079e-006 -0.0009109,-3.26341e-006 -0.000237209,-7.95457e-006 -0.000179284,8.97438e-006 -0.000209062,-0.000180304 -3.95689e-005,-0.000251691 -9.87182e-005,-7.11832e-005 -0.000299214,-0.000175612 0.000161131,-9.79024e-005 0.00030105,-0.000167862 0.000505625,-0.000234558 0.000141551,-4.60957e-005 6.38405e-005,-4.05887e-005 0.000174185,-8.13813e-005 0.000516231,-0.000191522 0.00122317,-0.000305129 0.00181242,-0.000237413 1.22378e-006,0.000163579 -0.000191318,0.000755888 -0.00034633,0.000821972zm-0.0068805 0.000760171c5.09908e-006,0.000162151 0.000208654,0.000488696 0.000309616,0.000558044 0.000168678,0.000115851 0.000612094,0.000413434 0.000801372,0.000238025 0.000168066,-0.000138695 -0.000211918,-0.00091967 0.000463609,-0.00137349 0.000625555,-0.000420164 0.00132719,-0.000110548 0.00165435,0.000461161 1.6929e-005,0.000192541 6.50643e-005,0.000292483 4.54838e-005,0.000508684 -1.50933e-005,0.000168066 -3.67134e-005,0.000264336 -3.69174e-005,0.000465648 5.03789e-005,0.000114219 -1.57052e-005,3.77332e-005 7.771e-005,7.46506e-005 5.46622e-005,2.12122e-005 0.00040915,8.56646e-006 0.000484413,8.15853e-006l0.00391263 -1.63171e-006c0.000208043,2.44756e-006 0.00049094,3.8957e-005 0.000581907,-6.52682e-005 0.000117483,-0.000147465 -3.38579e-005,-0.000796273 0.000169086,-0.00111486 0.000141143,-0.000220892 0.000398136,-0.000486452 0.000759355,-0.000517863 0.000396097,-3.48777e-005 0.00071224,0.00010137 0.000936191,0.000353468 0.000311044,0.000350613 0.000232518,0.000526429 0.00023517,0.00109467 0.000185607,0.000161335 0.00027637,0.000209674 0.000714483,1.04021e-005 0.000168882,-7.68942e-005 0.000169901,-4.12006e-005 0.000220688,-0.000187034 1.34616e-005,-7.7506e-005 0.000117687,-0.000109324 7.99536e-005,-0.000305741 -1.59091e-005,-8.24012e-005 -0.000145018,-0.000226807 -0.000185199,-0.000298194 -5.13987e-005,-9.15795e-005 -8.3421e-005,-0.000250059 -3.95689e-005,-0.000383247 2.42716e-005,-7.40387e-005 5.36423e-005,-8.64804e-005 9.30073e-005,-0.000137267 0.000182139,-0.000233538 -7.2407e-005,-0.000262909 -0.00013278,-0.000288404 -9.36191e-005,-3.95689e-005 -0.000148485,-5.67018e-005 -0.000264336,-9.62707e-005 -0.000561511,-0.000170105 -0.00124989,-0.000430974 -0.00179773,-0.00056559 -0.000156032,-3.83451e-005 -0.00123683,-0.000213957 -0.00136982,-0.000218445 -0.000368154,-1.28497e-005 -0.000888464,-2.18241e-005 -0.00125131,-2.2436e-006 -0.000202128,1.08101e-005 -0.000815037,0.000160111 -0.00102655,0.000217629 -0.000160927,4.38521e-005 -0.000327157,0.000127273 -0.000445456,0.000181935l-0.00087643 0.00037774c-0.000400584,0.000204371 -0.000584763,4.12006e-005 -0.00103613,2.42716e-005 -0.000537239,-1.97844e-005 -0.00122704,-2.50875e-005 -0.00172798,0.000139919 -0.000322262,0.000106469 -0.00136186,0.000408334 -0.00134881,0.000841145zm0.0073078 -0.00077506c-1.99884e-005,-0.000215589 0.000112588,-0.000826255 0.000403439,-0.000821768 0.000224971,3.67134e-006 0.000423224,0.000133392 0.000605975,0.000239045 -4.50759e-005,0.000130536 -2.61073e-005,0.00011218 -0.00012299,0.000199068 -0.000178876,0.000160315 -0.00063147,0.000421796 -0.000886424,0.000383655z"/>
    <circle id="_187034976" class="fil3 str0" cx="0.00241644" cy="0.00660142" r="0.000790713"/>
    <circle id="_187034784" class="fil3 str0" cx="0.00957082" cy="0.00660142" r="0.000790713"/>
   </g>
  </g>
 </g>
</svg>
