<?xml version="1.0" encoding="UTF-8"?>
<!DOCTYPE svg PUBLIC "-//W3C//DTD SVG 1.1//EN" "http://www.w3.org/Graphics/SVG/1.1/DTD/svg11.dtd">
<!-- Creator: CorelDRAW X5 -->
<svg xmlns="http://www.w3.org/2000/svg" xml:space="preserve" width="40" height="40" style="shape-rendering:geometricPrecision; text-rendering:geometricPrecision; image-rendering:optimizeQuality; fill-rule:evenodd; clip-rule:evenodd"
viewBox="0 0 0.011763 0.011763"
 xmlns:xlink="http://www.w3.org/1999/xlink">
 <defs>
  <style type="text/css">
   <![CDATA[
    .str0 {stroke:#FF6A28;stroke-width:0.000357044}
    .fil2 {fill:none}
    .fil3 {fill:#000000}
    .fil0 {fill:#FFDFB2}
    .fil1 {fill:url(#id1)}
   ]]>
  </style>
    <clipPath id="id0">
     <path d="M0.00588151 0c0.00324841,0 0.00588151,0.0026331 0.00588151,0.00588151 0,0.00324841 -0.0026331,0.00588151 -0.00588151,0.00588151 -0.00324841,0 -0.00588151,-0.0026331 -0.00588151,-0.00588151 0,-0.00324841 0.0026331,-0.00588151 0.00588151,-0.00588151z"/>
    </clipPath>
  <linearGradient id="id1" gradientUnits="userSpaceOnUse" x1="-0.0118924" y1="0.0051407" x2="-0.0118924" y2="-0.00558154">
   <stop offset="0" style="stop-color:#FFDFB2"/>
   <stop offset="1" style="stop-color:#FEFEFE"/>
  </linearGradient>
 </defs>
 <g id="Layer_x0020_1">
  <metadata id="CorelCorpID_0Corel-Layer"/>
  <g id="_189127120">
   <path id="_189136048" class="fil0" d="M0.00588151 0c0.00324841,0 0.00588151,0.0026331 0.00588151,0.00588151 0,0.00324841 -0.0026331,0.00588151 -0.00588151,0.00588151 -0.00324841,0 -0.00588151,-0.0026331 -0.00588151,-0.00588151 0,-0.00324841 0.0026331,-0.00588151 0.00588151,-0.00588151z"/>
   <g style="clip-path:url(#id0)">
    <g>
     <circle id="_184442016" class="fil1" cx="-0.0118924" cy="-0.00022042" r="0.00536112"/>
    </g>
   </g>
   <path class="fil2" d="M0.00588151 0c0.00324841,0 0.00588151,0.0026331 0.00588151,0.00588151 0,0.00324841 -0.0026331,0.00588151 -0.00588151,0.00588151 -0.00324841,0 -0.00588151,-0.0026331 -0.00588151,-0.00588151 0,-0.00324841 0.0026331,-0.00588151 0.00588151,-0.00588151z"/>
   <g>
    <path id="_187035600" class="fil3" d="M0.00832353 0.00472719l0 0.000673202c0.000153221,2.67176e-005 0.000326076,-2.83368e-006 0.000514516,-2.12526e-005 2.34791e-005,-0.000242482 0.000156055,-0.000341661 -0.000160305,-0.000532125l-0.000137029 -7.04372e-005c-9.75596e-005,-5.46496e-005 -0.000122456,-6.27458e-005 -0.000217181,-4.9387e-005zm-0.000162937 0.000646687l0 -0.000740198c-0.00012286,-9.49283e-005 -0.000234386,-9.47259e-005 -0.000498728,-0.000120431 -0.000194107,-1.88237e-005 -0.000596895,-3.05633e-005 -0.000793228,-7.89383e-006 -8.50104e-005,0.000153221 -0.000102013,0.000206656 -0.000114157,0.000421409 -1.11323e-005,0.000191273 -6.25434e-005,0.000341661 -3.27897e-005,0.000536173 0.000253007,5.06014e-005 0.000847068,6.47699e-006 0.00116201,4.04812e-007 0.000215765,-4.25052e-006 0.000185404,1.61925e-005 0.000276891,-8.94634e-005zm0.0016996 0.0010434c0.000164556,0.000304418 4.53389e-005,0.000586572 0.000157877,0.000790799 0.000120634,1.53828e-005 0.000546698,-1.61925e-005 0.000680893,-3.48138e-005 0.000241875,-3.38018e-005 0.000309478,-0.000116991 0.00032142,-0.000377487 2.93488e-005,-0.000634542 -8.56176e-005,-0.000250376 -9.95836e-005,-0.000621588 -9.51307e-006,-0.000256651 -8.90585e-006,-0.000465938 -7.02348e-005,-0.000667737 -0.000119622,-0.000392262 -0.00075214,-0.000193905 -0.00149821,-0.000622195l-0.000488203 -0.000255436c-0.000435375,-0.000181356 -0.000570987,-0.000284178 -0.00108651,-0.000339435 -0.00040299,-4.31124e-005 -0.00101608,-2.1455e-005 -0.00143688,-1.70021e-005 -0.000696681,7.0842e-006 -0.00123144,0.000189047 -0.00181254,0.000496704 -0.000168402,8.9261e-005 -0.000478892,0.000310693 -0.000595883,0.000358056 -0.000221837,8.98682e-005 -0.00013379,7.59022e-005 -0.000225278,0.000127718 -4.43269e-005,2.48959e-005 -0.00175344,0.000301989 -0.0018429,0.0002945 -0.000127516,1.21443e-006 -0.000502169,8.58201e-005 -0.00060155,0.000140065 -0.000173259,9.49283e-005 -0.000242077,0.000204632 -0.000318384,0.000392262 -6.17338e-005,0.000151804 -1.19419e-005,0.000117193 -0.000115979,0.00024066 -0.000191881,0.000227707 -2.692e-005,0.000569772 2.42887e-005,0.000831685 0.000926209,0.000152209 0.000547103,-3.5421e-005 0.000648508,-0.000537792 1.33588e-005,-6.57819e-005 5.4852e-005,-0.000136826 9.24994e-005,-0.000208478 4.63509e-005,-8.80465e-005 0.000101608,-0.000136422 0.000183987,-0.000230945 0.000223254,-0.000256246 0.000423028,-0.000265961 0.000739186,-0.000263937 0.000226087,1.41684e-006 0.000326683,3.5421e-005 0.000476868,0.000139053 0.000342673,0.00023641 0.00044003,0.000578273 0.000418575,0.000980049 -7.0842e-006,0.000132373 -7.48901e-006,0.000129135 4.63509e-005,0.000245316 9.93812e-005,8.56176e-005 0.00319174,3.56234e-005 0.00344555,3.56234e-005 0.000281546,-2.02406e-007 0.000931876,6.31506e-005 0.00111566,-5.40423e-005 2.36815e-005,-4.43269e-005 6.07217e-007,4.81726e-005 2.85392e-005,-7.99503e-005 1.90261e-005,-8.68321e-005 5.66736e-006,-0.000172045 2.83368e-006,-0.000266568 -9.51307e-006,-0.000311907 4.14932e-005,-0.000488608 0.000264342,-0.000722589 0.00047869,-0.000502371 0.00122779,-0.000359675 0.00154476,0.000227504zm-0.00438269 -0.0018008c0.00029106,-8.58201e-005 0.000828042,-0.000175283 0.0010938,-7.02348e-005 1.43708e-005,3.72427e-005 -4.04812e-006,0.000157067 -7.89383e-006,0.000202608 -3.92667e-005,0.000146542 -4.69581e-005,0.000508039 -5.52568e-005,0.000671987 -0.000142291,4.55413e-005 -0.000104239,5.86977e-005 -0.000284987,6.35554e-005l-0.000889169 5.28279e-005c-0.000708015,2.95512e-005 -0.00061754,6.78059e-005 -0.000655592,-0.000135409 -2.42887e-005,-0.00012954 4.47317e-005,-4.1898e-005 -4.65533e-005,-0.000102215 -1.41684e-005,-9.10826e-006 -0.000214145,-4.04812e-005 -0.000247947,-4.81726e-005 4.45293e-005,-0.00019775 9.71548e-005,-0.000167794 0.000243899,-0.000258877 2.16574e-005,-1.33588e-005 0.000814076,-0.000365545 0.0008497,-0.00037607z"/>
    <circle id="_189139936" class="fil3 str0" cx="0.0024536" cy="0.006884" r="0.000616348"/>
    <circle id="_187035216" class="fil3 str0" cx="0.00903877" cy="0.006884" r="0.000616348"/>
   </g>
  </g>
 </g>
</svg>
