<?xml version="1.0" encoding="UTF-8"?>
<!DOCTYPE svg PUBLIC "-//W3C//DTD SVG 1.1//EN" "http://www.w3.org/Graphics/SVG/1.1/DTD/svg11.dtd">
<!-- Creator: CorelDRAW X5 -->
<svg xmlns="http://www.w3.org/2000/svg" xml:space="preserve" width="40" height="40" style="shape-rendering:geometricPrecision; text-rendering:geometricPrecision; image-rendering:optimizeQuality; fill-rule:evenodd; clip-rule:evenodd"
viewBox="0 0 0.0118322 0.0118322"
 xmlns:xlink="http://www.w3.org/1999/xlink">
 <defs>
  <style type="text/css">
   <![CDATA[
    .str0 {stroke:#FF6A28;stroke-width:0.000359145}
    .fil2 {fill:none}
    .fil3 {fill:#000000}
    .fil0 {fill:#FFDFB2}
    .fil1 {fill:url(#id1)}
   ]]>
  </style>
    <clipPath id="id0">
     <path d="M0.00591612 0c0.00326753,0 0.00591612,0.00264859 0.00591612,0.00591612 0,0.00326753 -0.00264859,0.00591612 -0.00591612,0.00591612 -0.00326753,0 -0.00591612,-0.00264859 -0.00591612,-0.00591612 0,-0.00326753 0.00264859,-0.00591612 0.00591612,-0.00591612z"/>
    </clipPath>
  <linearGradient id="id1" gradientUnits="userSpaceOnUse" x1="-0.0119623" y1="0.00517096" x2="-0.0119623" y2="-0.00561439">
   <stop offset="0" style="stop-color:#FFDFB2"/>
   <stop offset="1" style="stop-color:#FEFEFE"/>
  </linearGradient>
 </defs>
 <g id="Layer_x0020_1">
  <metadata id="CorelCorpID_0Corel-Layer"/>
  <g id="_187034832">
   <path id="_184445784" class="fil0" d="M0.00591612 0c0.00326753,0 0.00591612,0.00264859 0.00591612,0.00591612 0,0.00326753 -0.00264859,0.00591612 -0.00591612,0.00591612 -0.00326753,0 -0.00591612,-0.00264859 -0.00591612,-0.00591612 0,-0.00326753 0.00264859,-0.00591612 0.00591612,-0.00591612z"/>
   <g style="clip-path:url(#id0)">
    <g>
     <circle id="_189126976" class="fil1" cx="-0.0119623" cy="-0.000221717" r="0.00539267"/>
    </g>
   </g>
   <path class="fil2" d="M0.00591612 0c0.00326753,0 0.00591612,0.00264859 0.00591612,0.00591612 0,0.00326753 -0.00264859,0.00591612 -0.00591612,0.00591612 -0.00326753,0 -0.00591612,-0.00264859 -0.00591612,-0.00591612 0,-0.00326753 0.00264859,-0.00591612 0.00591612,-0.00591612z"/>
   <g>
    <path id="_187034688" class="fil3" d="M0.00419817 0.00490017c0.000103631,-9.69122e-005 0.00057394,-0.000572718 0.000575162,-0.000575569 0.000329624,-5.78216e-005 0.00116905,-0.000104649 0.00156953,-7.57381e-005 4.82525e-005,0.000294605 -6.06719e-005,0.000552359 -7.10554e-005,0.000852257 -2.44316e-006,9.81338e-005 -2.78928e-005,0.000130098 -4.11266e-005,0.000183645 -0.00035996,1.5677e-005 -0.00071768,4.0923e-005 -0.00111144,4.62165e-005 -0.000101799,1.42518e-006 -0.000493112,1.58806e-005 -0.000566,1.22158e-006 -0.000177333,-3.54259e-005 1.4659e-005,-0.000221921 -0.000355073,-0.000432033zm-0.000217849 -0.000272006c-0.000928606,0.00106237 -0.00302647,0.000443231 -0.0032433,0.00114829 -0.00010811,0.000351408 -0.000295826,0.00125131 -0.000143129,0.00160781l0.000842077 0c-4.41806e-005,-0.000408008 0.000135188,-0.00114707 0.000790364,-0.00123197 0.000137021,-1.77129e-005 0.00039905,-1.91381e-005 0.000536071,-1.42518e-006 0.000690194,8.93791e-005 0.000690398,0.000715033 0.000828436,0.00119858 0.000243502,5.31388e-005 0.00458378,6.10791e-005 0.00488898,6.10791e-006 0.000201968,-0.000394164 -1.62878e-005,-0.000505531 0.000364439,-0.000892569 0.00051225,-0.000520801 0.00131931,-0.000505735 0.00172223,0.000132949 0.000240244,0.000380523 0.000224364,0.000372583 0.000199525,0.000790771l0.000419003 -9.97625e-006c0.000111164,-0.000468884 4.01086e-005,-0.00011605 9.4469e-005,-0.000568443 8.20496e-005,-0.000682254 -0.000169189,-0.000502274 -0.000234137,-0.000719919 -1.75093e-005,-5.90431e-005 -2.36173e-005,-0.000250221 -2.91144e-005,-0.000321887 -1.58806e-005,-0.000209501 -0.000281575,-0.0009622 -0.000356091,-0.00111815 -8.44928e-005,-0.000176722 -0.000255921,-0.000648457 -0.00044547,-0.00071035 -0.000132134,-4.2959e-005 -0.00304724,-1.3641e-005 -0.00333431,-1.34374e-005l-0.00192623 7.53309e-005c-0.000102002,4.07194e-006 -0.000171836,1.71021e-005 -0.000266305,4.90669e-005l-0.000114625 4.43842e-005c-3.46115e-005,2.15813e-005 -0.000569461,0.000507975 -0.000592875,0.000534849zm0.00647031 0.000370343l2.50424e-005 0.000207058c-0.000212148,2.97252e-005 -0.00111144,3.42043e-005 -0.00130954,-4.27554e-006l-0.000363421 -0.000776723c-2.23957e-005,-0.00013865 2.21921e-005,-0.00014435 0.000135799,-0.000153512 0.000268952,-2.17849e-005 0.000896845,4.07194e-005 0.00120489,-1.48626e-005 0.000151883,6.27079e-005 0.000292569,0.000637869 0.000307228,0.000742315zm-0.00204737 0.000296437c-0.000131931,0.000100984 -0.00130669,4.78453e-005 -0.00155711,5.19172e-005 -0.000173668,2.64676e-006 -0.000269155,3.64439e-005 -0.000308857,-0.000112182 -4.27554e-005,-0.000161249 7.89956e-005,-0.000891755 0.000153105,-0.00101452 0.000395182,-3.94978e-005 0.00120611,-6.18935e-005 0.00154937,2.46352e-005 4.0923e-005,9.22295e-005 0.000124194,0.000412284 0.000152291,0.000544215 4.13302e-005,0.000193824 0.000171836,0.000357516 1.11978e-005,0.000505939zm0.00248979 0.000544011l0 0z"/>
    <circle id="_187034592" class="fil3 str0" cx="0.00249579" cy="0.00717137" r="0.000746456"/>
    <circle id="_187034400" class="fil3 str0" cx="0.00965615" cy="0.00717137" r="0.000746456"/>
   </g>
  </g>
 </g>
</svg>
