<?xml version="1.0" encoding="UTF-8"?>
<!DOCTYPE svg PUBLIC "-//W3C//DTD SVG 1.1//EN" "http://www.w3.org/Graphics/SVG/1.1/DTD/svg11.dtd">
<!-- Creator: CorelDRAW X5 -->
<svg xmlns="http://www.w3.org/2000/svg" xml:space="preserve" width="40" height="40" style="shape-rendering:geometricPrecision; text-rendering:geometricPrecision; image-rendering:optimizeQuality; fill-rule:evenodd; clip-rule:evenodd"
viewBox="0 0 0.0118999 0.0118999"
 xmlns:xlink="http://www.w3.org/1999/xlink">
 <defs>
  <style type="text/css">
   <![CDATA[
    .str0 {stroke:#FF6A28;stroke-width:0.000361198}
    .fil2 {fill:none}
    .fil3 {fill:#000000}
    .fil0 {fill:#FFDFB2}
    .fil1 {fill:url(#id1)}
   ]]>
  </style>
    <clipPath id="id0">
     <path d="M0.00594994 0c0.00328621,0 0.00594994,0.00266374 0.00594994,0.00594994 0,0.00328621 -0.00266374,0.00594994 -0.00594994,0.00594994 -0.00328621,0 -0.00594994,-0.00266374 -0.00594994,-0.00594994 0,-0.00328621 0.00266374,-0.00594994 0.00594994,-0.00594994z"/>
    </clipPath>
  <linearGradient id="id1" gradientUnits="userSpaceOnUse" x1="-0.0120307" y1="0.00520052" x2="-0.0120307" y2="-0.00564649">
   <stop offset="0" style="stop-color:#FFDFB2"/>
   <stop offset="1" style="stop-color:#FEFEFE"/>
  </linearGradient>
 </defs>
 <g id="Layer_x0020_1">
  <metadata id="CorelCorpID_0Corel-Layer"/>
  <g id="_184446024">
   <path id="_189139576" class="fil0" d="M0.00594994 0c0.00328621,0 0.00594994,0.00266374 0.00594994,0.00594994 0,0.00328621 -0.00266374,0.00594994 -0.00594994,0.00594994 -0.00328621,0 -0.00594994,-0.00266374 -0.00594994,-0.00594994 0,-0.00328621 0.00266374,-0.00594994 0.00594994,-0.00594994z"/>
   <g style="clip-path:url(#id0)">
    <g>
     <circle id="_189139264" class="fil1" cx="-0.0120307" cy="-0.000222985" r="0.0054235"/>
    </g>
   </g>
   <path class="fil2" d="M0.00594994 0c0.00328621,0 0.00594994,0.00266374 0.00594994,0.00594994 0,0.00328621 -0.00266374,0.00594994 -0.00594994,0.00594994 -0.00328621,0 -0.00594994,-0.00266374 -0.00594994,-0.00594994 0,-0.00328621 0.00266374,-0.00594994 0.00594994,-0.00594994z"/>
   <g>
    <path id="_187034304" class="fil3" d="M0.00797114 0.00533013c-0.000226261,2.80522e-005 -0.00172532,6.0814e-005 -0.00189486,9.419e-006 -5.44664e-005,-0.00012859 -2.96903e-005,-0.00115588 0.000177732,-0.00127525 7.06425e-005,-4.07474e-005 0.00153775,-1.28999e-005 0.00155557,-9.62376e-006 1.41285e-005,2.45713e-006 0.000121014,-1.84285e-006 0.000121218,-1.84285e-006 0,0.00035526 6.85949e-005,0.00079222 4.03379e-005,0.0012773zm-0.00733147 0.00230847c9.39853e-005,4.23855e-005 0.000400103,1.90428e-005 0.00049716,-2.45713e-006 -1.82237e-005,-0.000596264 -0.000184899,-0.00119888 0.000773382,-0.00141572 0.000636397,-0.000204966 0.00112373,0.000249194 0.0012775,0.00081372 0.000105247,0.000386793 -7.47377e-005,0.000446174 -8.80472e-006,0.000723216 0.000249194,7.94472e-005 0.00498327,5.54902e-005 0.00510367,-5.93807e-006l3.86998e-005 -0.000112004c8.19044e-006,-7.92425e-005 -5.2214e-005,-0.000221961 -3.84951e-005,-0.000451703 3.78808e-005,-0.000639878 0.000773587,-0.00117942 0.00147715,-0.000853648 0.00069803,0.000323113 0.000525007,0.00100947 0.000546712,0.00130781 0.000292194,5.32378e-005 0.000569235,2.8257e-005 0.000813925,-3.7676e-005 0.000218685,-5.87664e-005 0.00036857,-4.58665e-005 0.000379422,-0.000543026 5.52855e-006,-0.000249604 -0.000167494,-0.0010754 -0.000220732,-0.00136187 -2.51856e-005,-8.19044e-005 -5.87664e-005,-0.000114052 -0.00012429,-0.000161556 -8.68186e-005,-5.69235e-005 -0.00015439,-0.000277042 -0.000194318,-0.000381879 -0.00024858,-0.000652164 -0.000270284,-0.000581112 -0.000557564,-0.0010492 -5.15998e-005,-8.37472e-005 -4.54569e-005,-0.000149885 -9.39853e-005,-0.000230356 -0.000297313,-5.63093e-005 -0.00288365,-1.76094e-005 -0.00340988,-1.67904e-005 -0.00197799,3.07141e-006 -0.00175951,-0.000164833 -0.00351165,0.000780753 -9.3371e-005,5.03712e-005 -0.000182852,8.0471e-005 -0.000280932,0.000142514l-0.000269261 0.000179985c-0.000198004,0.000121218 -0.000352189,0.000191656 -0.00059094,0.00027397 -6.77759e-005,2.33427e-005 -0.00023097,6.32711e-005 -0.000318198,0.000104019 -0.000116918,5.46712e-005 -0.000207013,7.86282e-005 -0.000322089,0.000126952 -0.000222575,9.37805e-005 -0.000387817,0.000136985 -0.000619197,0.000221551 -0.000392527,0.000143742 -0.000391298,0.000671616 -0.000452931,0.00082662 -5.77426e-005,0.000144766 -0.00011999,0.000105452 -0.000131661,0.000317789 -1.24904e-005,0.000233632 9.419e-006,0.00070192 0.000237318,0.000804915zm0.00953387 -0.00272209l7.78092e-006 0.000150499c-0.000168313,0.000105247 -0.00127791,0.000156642 -0.00174211,0.000134323l-0.00019698 0 2.04761e-007 6.14283e-007 -2.92808e-005 -6.14283e-007 0 -6.96187e-006c-9.13234e-005,-2.43666e-005 -6.04045e-005,-2.72332e-005 -7.08473e-005,-0.00020558 -1.59714e-005,-0.00027008 -4.66855e-005,-0.000638445 -1.8838e-005,-0.000912824 0.00125518,-0.000150909 0.00158383,0.000236704 0.00205007,0.000840544zm-0.00425841 -0.00078403c2.29332e-005,1.41285e-005 4.79141e-005,1.76094e-005 5.30331e-005,0.000160328 -1.14666e-005,0.000127566 -9.31662e-005,0.000964219 -0.000166675,0.00103056 -0.00013248,8.41567e-005 -0.000931867,0.000103609 -0.00115403,0.000108933 -0.00123307,2.94856e-005 -0.000909958,9.3371e-005 -0.000986129,-0.000282775l-0.000297927 -0.000114461c-5.52855e-006,-0.000274175 0.000340108,-0.000350551 0.000588483,-0.000499207 0.000478526,-0.00028687 0.00131927,-0.000586435 0.00188278,-0.000444946 8.3952e-005,2.10904e-005 4.46379e-005,8.19044e-006 7.04378e-005,3.37856e-005l4.09522e-006 8.19044e-007 0 1.0238e-006c3.07141e-006,0 4.7095e-006,3.48094e-006 5.93807e-006,5.93807e-006z"/>
    <circle id="_187034208" class="fil3 str0" cx="0.009305" cy="0.00727456" r="0.000693945"/>
    <circle id="_189138808" class="fil3 str0" cx="0.00217318" cy="0.00727456" r="0.000693945"/>
   </g>
  </g>
 </g>
</svg>
